<?xml version="1.0" encoding="UTF-8" standalone="no"?>
<svg
   xmlns:dc="http://purl.org/dc/elements/1.1/"
   xmlns:cc="http://creativecommons.org/ns#"
   xmlns:rdf="http://www.w3.org/1999/02/22-rdf-syntax-ns#"
   xmlns:svg="http://www.w3.org/2000/svg"
   xmlns="http://www.w3.org/2000/svg"
   xmlns:sodipodi="http://sodipodi.sourceforge.net/DTD/sodipodi-0.dtd"
   xmlns:inkscape="http://www.inkscape.org/namespaces/inkscape"
   width="210mm"
   height="297mm"
   viewBox="0 0 210 297"
   version="1.1"
   id="svg8"
   sodipodi:docname="minutesToHoursGears.svg"
   inkscape:version="1.0.1 (3bc2e813f5, 2020-09-07)">
  <defs
     id="defs2" />
  <sodipodi:namedview
     id="base"
     pagecolor="#ffffff"
     bordercolor="#666666"
     borderopacity="1.0"
     inkscape:pageopacity="0.0"
     inkscape:pageshadow="2"
     inkscape:zoom="0.98994949"
     inkscape:cx="355.01058"
     inkscape:cy="663.94484"
     inkscape:document-units="mm"
     inkscape:current-layer="layer1"
     inkscape:document-rotation="0"
     showgrid="false"
     inkscape:window-width="1624"
     inkscape:window-height="1228"
     inkscape:window-x="6467"
     inkscape:window-y="1496"
     inkscape:window-maximized="0" />
  <metadata
     id="metadata5">
    <rdf:RDF>
      <cc:Work
         rdf:about="">
        <dc:format>image/svg+xml</dc:format>
        <dc:type
           rdf:resource="http://purl.org/dc/dcmitype/StillImage" />
        <dc:title></dc:title>
      </cc:Work>
    </rdf:RDF>
  </metadata>
  <g
     inkscape:label="Layer 1"
     inkscape:groupmode="layer"
     id="layer1">
    <g
       inkscape:label="Rendered Gears"
       transform="translate(66.544375,216.85527)"
       id="g48">
      <path
         style="fill:none;stroke:#000000;stroke-width:0.264583"
         d="m 10.2822,-1.13839 1.204,-0.13329 0.385,0.02396 1.6411,0.59331 V 0.65441 L 11.8712,1.24772 11.4862,1.27168 10.2822,1.13839 9.85632,3.1422 11.0104,3.51013 11.3524,3.68862 12.6103,4.89813 12.078,6.0938 10.3374,5.96831 9.97595,5.83361 8.93028,5.22213 7.72615,6.87947 8.63083,7.68501 8.87064,7.98716 9.52784,9.60373 8.55519,10.4795 7.01617,9.65693 6.74074,9.38685 6.03418,8.40293 4.26006,9.42722 4.75888,10.5311 4.85506,10.9047 4.79792,12.6488 3.55316,13.0532 2.48176,11.6758 2.34,11.317 2.09472,10.1308 0.05736,10.3449 0.06408,11.5562 0,11.9366 l -0.7616,1.5701 -1.30165,-0.1368 -0.41851,-1.6941 0.01641,-0.3854 0.25841,-1.1835 -1.94831,-0.63302 -0.48656,1.10932 -0.21325,0.3215 -1.33437,1.1245 -1.13347,-0.6544 0.30673,-1.71787 0.17175,-0.3454 0.71743,-0.97604 -1.5224,-1.37076 -0.89569,0.81552 -0.32556,0.20691 -1.67646,0.48462 -0.7693,-1.05886 0.979,-1.44461 0.2974,-0.24569 1.05236,-0.59984 -0.83323,-1.87147 -1.14993,0.3807 -0.3816,0.05661 -1.7286,-0.23914 -0.2721,-1.28022 1.4819,-0.92154 0.3716,-0.10349 1.2054,-0.11994 v -2.04858 l -1.2054,-0.11994 -0.3716,-0.10349 -1.4819,-0.92154 0.2721,-1.28022 1.7286,-0.23914 0.3816,0.05661 1.14993,0.3807 0.83323,-1.87147 -1.05236,-0.59984 -0.2974,-0.24569 -0.979,-1.44461 0.7693,-1.05886 1.67646,0.48462 0.32556,0.20691 0.89569,0.81552 1.5224,-1.37076 -0.71743,-0.97604 -0.17175,-0.3454 -0.30673,-1.71787 1.13347,-0.6544 1.33437,1.1245 0.21325,0.3215 0.48656,1.10932 1.94831,-0.63302 -0.25841,-1.1835 -0.01641,-0.3854 0.41851,-1.6941 1.30165,-0.1368 0.7616,1.5701 0.06408,0.3804 -0.00672,1.2113 2.03736,0.2141 0.24528,-1.1862 0.14176,-0.3588 1.0714,-1.3774 1.24476,0.4044 0.05714,1.7441 -0.09618,0.3736 -0.49882,1.10388 1.77412,1.02429 0.70656,-0.98392 0.27543,-0.27008 1.53902,-0.82257 0.97265,0.87577 -0.6572,1.61657 -0.23981,0.30215 -0.90468,0.80554 1.20413,1.65734 1.04567,-0.61148 0.36145,-0.1347 1.7406,-0.12549 0.5323,1.19567 -1.2579,1.20951 -0.342,0.17849 -1.15408,0.36793 z"
         id="path46" />
    </g>
    <g
       inkscape:label="Rendered Gears"
       transform="translate(65.475299,127.85452)"
       id="g61">
      <path
         style="fill:none;stroke:#000000;stroke-width:0.264583"
         d="m 7.88379,-1.08243 1.27541,-0.17511 0.3084,0.01111 1.6558,0.62287 V 0.62356 L 9.4676,1.24643 9.1592,1.25754 7.88379,1.08243 7.36877,3.00449 8.56087,3.49054 8.8224,3.65436 9.94491,5.02167 9.32135,6.10171 7.57597,5.81324 7.30333,5.66866 6.28635,4.8793 4.8793,6.28635 5.66866,7.30333 5.81324,7.57597 6.10171,9.32135 5.02167,9.94491 3.65436,8.8224 3.49054,8.56087 3.00449,7.36877 1.08243,7.88379 1.25754,9.1592 1.24643,9.4676 0.62356,11.1234 H -0.62356 L -1.24643,9.4676 -1.25754,9.1592 -1.08243,7.88379 -3.00449,7.36877 -3.49054,8.56087 -3.65436,8.8224 -5.02167,9.94491 -6.10171,9.32135 -5.81324,7.57597 -5.66866,7.30333 -4.8793,6.28635 -6.28635,4.8793 -7.30333,5.66866 -7.57597,5.81324 -9.32135,6.10171 -9.94491,5.02167 -8.8224,3.65436 -8.56087,3.49054 -7.36877,3.00449 -7.88379,1.08243 -9.1592,1.25754 -9.4676,1.24643 -11.1234,0.62356 v -1.24712 l 1.6558,-0.62287 0.3084,-0.01111 1.27541,0.17511 0.51502,-1.92206 -1.1921,-0.48605 -0.26153,-0.16382 -1.12251,-1.36731 0.62356,-1.08004 1.74538,0.28847 0.27264,0.14458 1.01698,0.78936 1.40705,-1.40705 -0.78936,-1.01698 -0.14458,-0.27264 -0.28847,-1.74538 1.08004,-0.62356 1.36731,1.12251 0.16382,0.26153 0.48605,1.1921 1.92206,-0.51502 -0.17511,-1.27541 0.01111,-0.3084 0.62287,-1.6558 h 1.24712 l 0.62287,1.6558 0.01111,0.3084 -0.17511,1.27541 1.92206,0.51502 0.48605,-1.1921 0.16382,-0.26153 1.36731,-1.12251 1.08004,0.62356 -0.28847,1.74538 -0.14458,0.27264 -0.78936,1.01698 1.40705,1.40705 1.01698,-0.78936 0.27264,-0.14458 1.74538,-0.28847 0.62356,1.08004 -1.12251,1.36731 -0.26153,0.16382 -1.1921,0.48605 z"
         id="path59" />
    </g>
    <g
       inkscape:label="Rendered Gears"
       transform="translate(67.078918,129.7254)"
       id="g76">
      <path
         style="fill:none;stroke:#000000;stroke-width:0.264583"
         d="m 36.5788,-1.40055 0.3746,-0.01434 1.2233,0.16511 1.6047,0.48662 v 1.52632 l -1.6047,0.48662 -1.2233,0.16511 -0.3746,-0.01434 -0.1301,1.98538 0.3733,0.03468 1.1913,0.32337 1.5274,0.6919 -0.1992,1.51327 -1.6545,0.273 -1.2344,0.00403 -0.3695,-0.06312 -0.3882,1.95141 0.3656,0.0831 1.1389,0.4761 1.424,0.88536 -0.395,1.47437 -1.676,0.0547 -1.2243,-0.1572 -0.3582,-0.1108 -0.6395,1.8841 0.3516,0.1301 1.067,0.6207 1.2963,1.0636 -0.5841,1.4102 -1.6688,-0.1645 -1.1933,-0.3156 -0.3406,-0.1567 -0.88,1.7845 0.3316,0.1749 0.9768,0.7546 1.1464,1.2238 -0.7632,1.3218 -1.633,-0.3809 -1.1419,-0.4687 -0.3173,-0.1997 -1.1054,1.6543 0.306,0.2167 0.87,0.8757 0.9768,1.3629 -0.9292,1.2109 -1.5693,-0.5908 -1.071,-0.6137 -0.2885,-0.2394 -1.3118,1.4959 0.275,0.2547 0.7483,0.9818 0.7906,1.4788 -1.0793,1.0793 -1.4788,-0.7906 -0.9818,-0.7483 -0.2547,-0.275 -1.4959,1.3118 0.2394,0.2885 0.6137,1.071 0.5908,1.5693 -1.2109,0.9292 -1.3629,-0.9768 -0.8757,-0.87 -0.2167,-0.306 -1.6543,1.1054 0.1997,0.3173 0.4687,1.1419 0.3809,1.633 -1.3218,0.7632 -1.2238,-1.1464 -0.7546,-0.9768 -0.1749,-0.3316 -1.7845,0.88 0.1567,0.3406 0.3156,1.1933 0.1645,1.6688 -1.4102,0.5841 -1.0636,-1.2963 -0.6207,-1.067 -0.1301,-0.3516 -1.8841,0.6395 0.1108,0.3582 0.1572,1.2243 -0.0547,1.676 -1.47437,0.395 -0.88536,-1.424 -0.4761,-1.1389 -0.0831,-0.3656 -1.95141,0.3882 0.06312,0.3695 -0.00403,1.2344 -0.273,1.6545 -1.51327,0.1992 -0.6919,-1.5274 -0.32337,-1.1913 -0.03468,-0.3733 -1.98538,0.1301 0.01434,0.3746 -0.16511,1.2233 -0.48662,1.6047 h -1.52632 l -0.48662,-1.6047 -0.16511,-1.2233 0.01434,-0.3746 -1.98538,-0.1301 -0.03468,0.3733 -0.32337,1.1913 -0.6919,1.5274 -1.51327,-0.1992 -0.273,-1.6545 -0.00403,-1.2344 0.06312,-0.3695 -1.95141,-0.3882 -0.0831,0.3656 -0.4761,1.1389 -0.88536,1.424 -1.47437,-0.395 -0.0547,-1.676 0.1572,-1.2243 0.1108,-0.3582 -1.8841,-0.6395 -0.1301,0.3516 -0.6207,1.067 -1.0636,1.2963 -1.4102,-0.5841 0.1645,-1.6688 0.3156,-1.1933 0.1567,-0.3406 -1.7845,-0.88 -0.1749,0.3316 -0.7546,0.9768 -1.2238,1.1464 -1.3218,-0.7632 0.3809,-1.633 0.4687,-1.1419 0.1997,-0.3173 -1.6543,-1.1054 -0.2167,0.306 -0.8757,0.87 -1.3629,0.9768 -1.2109,-0.9292 0.5908,-1.5693 0.6137,-1.071 0.2394,-0.2885 -1.4959,-1.3118 -0.2547,0.275 -0.9818,0.7483 -1.4788,0.7906 -1.0793,-1.0793 0.7906,-1.4788 0.7483,-0.9818 0.275,-0.2547 -1.3118,-1.4959 -0.2885,0.2394 -1.071,0.6137 -1.5693,0.5908 -0.9292,-1.2109 0.9768,-1.3629 0.87,-0.8757 0.306,-0.2167 -1.1054,-1.6543 -0.3173,0.1997 -1.1419,0.4687 -1.633,0.3809 -0.7632,-1.3218 1.1464,-1.2238 0.9768,-0.7546 0.3316,-0.1749 -0.88,-1.7845 -0.3406,0.1567 -1.1933,0.3156 -1.6688,0.1645 -0.5841,-1.4102 1.2963,-1.0636 1.067,-0.6207 0.3516,-0.1301 -0.6395,-1.8841 -0.3582,0.1108 -1.2243,0.1572 -1.676,-0.0547 -0.395,-1.47437 1.424,-0.88536 1.1389,-0.4761 0.3656,-0.0831 -0.3882,-1.95141 -0.3695,0.06312 -1.2344,-0.00403 -1.6545,-0.273 -0.1992,-1.51327 1.5274,-0.6919 1.1913,-0.32337 0.3733,-0.03468 -0.1301,-1.98538 -0.3746,0.01434 -1.2233,-0.16511 -1.6047,-0.48662 v -1.52632 l 1.6047,-0.48662 1.2233,-0.16511 0.3746,0.01434 0.1301,-1.98538 -0.3733,-0.03468 -1.1913,-0.32337 -1.5274,-0.6919 0.1992,-1.51327 1.6545,-0.273 1.2344,-0.00403 0.3695,0.06312 0.3882,-1.95141 -0.3656,-0.0831 -1.1389,-0.4761 -1.424,-0.88536 0.395,-1.47437 1.676,-0.0547 1.2243,0.1572 0.3582,0.1108 0.6395,-1.8841 -0.3516,-0.1301 -1.067,-0.6207 -1.2963,-1.0636 0.5841,-1.4102 1.6688,0.1645 1.1933,0.3156 0.3406,0.1567 0.88,-1.7845 -0.3316,-0.1749 -0.9768,-0.7546 -1.1464,-1.2238 0.7632,-1.3218 1.633,0.3809 1.1419,0.4687 0.3173,0.1997 1.1054,-1.6543 -0.306,-0.2167 -0.87,-0.8757 -0.9768,-1.3629 0.9292,-1.2109 1.5693,0.5908 1.071,0.6137 0.2885,0.2394 1.3118,-1.4959 -0.275,-0.2547 -0.7483,-0.9818 -0.7906,-1.4788 1.0793,-1.0793 1.4788,0.7906 0.9818,0.7483 0.2547,0.275 1.4959,-1.3118 -0.2394,-0.2885 -0.6137,-1.071 -0.5908,-1.5693 1.2109,-0.9292 1.3629,0.9768 0.8757,0.87 0.2167,0.306 1.6543,-1.1054 -0.1997,-0.3173 -0.4687,-1.1419 -0.3809,-1.633 1.3218,-0.7632 1.2238,1.1464 0.7546,0.9768 0.1749,0.3316 1.7845,-0.88 -0.1567,-0.3406 -0.3156,-1.1933 -0.1645,-1.6688 1.4102,-0.5841 1.0636,1.2963 0.6207,1.067 0.1301,0.3516 1.8841,-0.6395 -0.1108,-0.3582 -0.1572,-1.2243 0.0547,-1.676 1.47437,-0.395 0.88536,1.424 0.4761,1.1389 0.0831,0.3656 1.95141,-0.3882 -0.06312,-0.3695 0.00403,-1.2344 0.273,-1.6545 1.51327,-0.1992 0.6919,1.5274 0.32337,1.1913 0.03468,0.3733 1.98538,-0.1301 -0.01434,-0.3746 0.16511,-1.2233 0.48662,-1.6047 h 1.52632 l 0.48662,1.6047 0.16511,1.2233 -0.01434,0.3746 1.98538,0.1301 0.03468,-0.3733 0.32337,-1.1913 0.6919,-1.5274 1.51327,0.1992 0.273,1.6545 0.00403,1.2344 -0.06312,0.3695 1.95141,0.3882 0.0831,-0.3656 0.4761,-1.1389 0.88536,-1.424 1.47437,0.395 0.0547,1.676 -0.1572,1.2243 -0.1108,0.3582 1.8841,0.6395 0.1301,-0.3516 0.6207,-1.067 1.0636,-1.2963 1.4102,0.5841 -0.1645,1.6688 -0.3156,1.1933 -0.1567,0.3406 1.7845,0.88 0.1749,-0.3316 0.7546,-0.9768 1.2238,-1.1464 1.3218,0.7632 -0.3809,1.633 -0.4687,1.1419 -0.1997,0.3173 1.6543,1.1054 0.2167,-0.306 0.8757,-0.87 1.3629,-0.9768 1.2109,0.9292 -0.5908,1.5693 -0.6137,1.071 -0.2394,0.2885 1.4959,1.3118 0.2547,-0.275 0.9818,-0.7483 1.4788,-0.7906 1.0793,1.0793 -0.7906,1.4788 -0.7483,0.9818 -0.275,0.2547 1.3118,1.4959 0.2885,-0.2394 1.071,-0.6137 1.5693,-0.5908 0.9292,1.2109 -0.9768,1.3629 -0.87,0.8757 -0.306,0.2167 1.1054,1.6543 0.3173,-0.1997 1.1419,-0.4687 1.633,-0.3809 0.7632,1.3218 -1.1464,1.2238 -0.9768,0.7546 -0.3316,0.1749 0.88,1.7845 0.3406,-0.1567 1.1933,-0.3156 1.6688,-0.1645 0.5841,1.4102 -1.2963,1.0636 -1.067,0.6207 -0.3516,0.1301 0.6395,1.8841 0.3582,-0.1108 1.2243,-0.1572 1.676,0.0547 0.395,1.47437 -1.424,0.88536 -1.1389,0.4761 -0.3656,0.0831 0.3882,1.95141 0.3695,-0.06312 1.2344,0.00403 1.6545,0.273 0.1992,1.51327 -1.5274,0.6919 -1.1913,0.32337 -0.3733,0.03468 z"
         id="path74" />
    </g>
    <g
       inkscape:label="Rendered Gears"
       transform="translate(67.346188,216.45436)"
       id="g93">
      <path
         style="fill:none;stroke:#000000;stroke-width:0.264583"
         d="m 34.1903,-1.3838 0.4506,-0.01824 1.1471,0.15229 1.6057,0.49072 V 0.75903 L 35.788,1.24975 34.6409,1.40204 34.1903,1.3838 l -0.1401,2.00424 0.4487,0.04464 1.1148,0.31047 1.5217,0.7094 -0.2112,1.50329 -1.6584,0.26248 -1.1572,-0.00885 -0.4436,-0.08076 -0.4177,1.96522 0.4381,0.10666 1.0608,0.4626 1.4082,0.91429 -0.4185,1.45922 -1.6787,0.0292 -1.1447,-0.1699 -0.4281,-0.1417 -0.6871,1.888 0.419,0.1666 0.986,0.6057 1.2673,1.1014 -0.6175,1.3868 -1.6664,-0.2048 -1.11,-0.3275 -0.4041,-0.1999 -0.9433,1.774 0.3918,0.2233 0.8922,0.737 1.1016,1.267 -0.8045,1.2874 -1.6217,-0.4347 -1.0535,-0.4787 -0.3725,-0.2543 -1.1809,1.6255 0.3569,0.2756 0.7809,0.854 0.9145,1.4081 -0.9757,1.1629 -1.5455,-0.6562 -0.9767,-0.6208 -0.3334,-0.3035 -1.3956,1.4452 0.315,0.3226 0.6544,0.9545 0.7097,1.5216 -1.1281,1.0157 -1.4391,-0.8648 -0.8807,-0.7507 -0.288,-0.347 -1.5832,1.2369 0.2671,0.3634 0.5152,1.0362 0.4911,1.6055 -1.2586,0.8489 -1.3047,-1.0567 -0.7677,-0.8659 -0.2368,-0.3837 -1.74,1.0045 0.2139,0.397 0.366,1.0978 0.2628,1.6583 -1.3644,0.6655 -1.1449,-1.2281 -0.6398,-0.9643 -0.1811,-0.4129 -1.8628,0.7526 0.1565,0.4229 0.2097,1.1381 0.0295,1.6787 -1.4438,0.4691 -0.96286,-1.3755 -0.49934,-1.0439 -0.12188,-0.4342 -1.94945,0.4861 0.09619,0.4405 0.04923,1.1562 -0.20444,1.6665 -1.495,0.2636 -0.76208,-1.496 -0.34918,-1.1033 -0.06028,-0.4469 -1.99813,0.21 0.03395,0.4496 -0.11216,1.1518 -0.43438,1.6218 -1.51714,0.053 L 0,35.8099 l -0.19223,-1.1412 0.0025,-0.4509 -2.00791,-0.0701 -0.02896,0.45 -0.27137,1.1249 -0.65586,1.5456 -1.50975,-0.1587 -0.32019,-1.6481 -0.03154,-1.1569 0.06523,-0.4461 -1.97861,-0.3489 -0.0913,0.4416 -0.4253,1.0762 -0.86458,1.4393 -1.47297,-0.3673 -0.0877,-1.6767 0.12976,-1.1499 0.1267,-0.4327 -1.91082,-0.6209 -0.1519,0.4246 -0.5709,1.0066 -1.0565,1.3049 -1.4075,-0.5687 0.1465,-1.6726 0.2885,-1.1206 0.1857,-0.411 -1.8058,-0.8807 -0.2094,0.3993 -0.7055,0.9173 -1.2278,1.1452 -1.3147,-0.759 0.3779,-1.6359 0.4417,-1.0696 0.241,-0.3811 -1.6656,-1.1235 -0.263,0.3663 -0.8263,0.8102 -1.3752,0.9631 -1.1963,-0.9346 0.6019,-1.5673 0.5862,-0.9978 0.2918,-0.3438 -1.4931,-1.3444 -0.3114,0.3261 -0.931,0.6874 -1.4959,0.7624 -1.0546,-1.0921 0.8142,-1.4683 0.7194,-0.9065 0.3368,-0.2998 -1.2915,-1.5391 -0.3538,0.2796 -1.0176,0.551 -1.5874,0.5468 -0.8923,-1.2281 1.0106,-1.3408 0.8385,-0.7975 0.3753,-0.2501 -1.0647,-1.7038 -0.3893,0.2276 -1.0844,0.4041 -1.648,0.3206 -0.7127,-1.3404 1.1873,-1.1871 0.9414,-0.673 0.4064,-0.1954 -0.8172,-1.8355 -0.4171,0.1713 -1.1301,0.2492 -1.6767,0.0881 -0.5192,-1.4265 1.341,-1.0103 1.0259,-0.5355 0.4296,-0.137 -0.5538,-1.93127 -0.4369,0.11151 -1.1538,0.08955 -1.6726,-0.14616 -0.3156,-1.48489 1.4686,-0.81382 1.0904,-0.38748 0.4445,-0.07584 -0.2796,-1.98957 -0.4482,0.04962 -1.155,-0.0719 -1.636,-0.37751 -0.1059,-1.51437 1.5676,-0.60152 1.1337,-0.23195 0.4507,-0.01324 v -2.00912 l -0.4507,-0.01324 -1.1337,-0.23195 -1.5676,-0.60152 0.1059,-1.51437 1.636,-0.37751 1.155,-0.0719 0.4482,0.04962 0.2796,-1.98957 -0.4445,-0.07584 -1.0904,-0.38748 -1.4686,-0.81382 0.3156,-1.48489 1.6726,-0.14616 1.1538,0.08955 0.4369,0.11151 0.5538,-1.93127 -0.4296,-0.137 -1.0259,-0.5355 -1.341,-1.0103 0.5192,-1.4265 1.6767,0.0881 1.1301,0.2492 0.4171,0.1713 0.8172,-1.8355 -0.4064,-0.1954 -0.9414,-0.673 -1.1873,-1.1871 0.7127,-1.3404 1.648,0.3206 1.0844,0.4041 0.3893,0.2276 1.0647,-1.7038 -0.3753,-0.2501 -0.8385,-0.7975 -1.0106,-1.3408 0.8923,-1.2281 1.5874,0.5468 1.0176,0.551 0.3538,0.2796 1.2915,-1.5391 -0.3368,-0.2998 -0.7194,-0.9065 -0.8142,-1.4683 1.0546,-1.0921 1.4959,0.7624 0.931,0.6874 0.3114,0.3261 1.4931,-1.3444 -0.2918,-0.3438 -0.5862,-0.9978 -0.6019,-1.5673 1.1963,-0.9346 1.3752,0.9631 0.8263,0.8102 0.263,0.3663 1.6656,-1.1235 -0.241,-0.3811 -0.4417,-1.0696 -0.3779,-1.6359 1.3147,-0.759 1.2278,1.1452 0.7055,0.9173 0.2094,0.3993 1.8058,-0.8807 -0.1857,-0.411 -0.2885,-1.1206 -0.1465,-1.6726 1.4075,-0.5687 1.0565,1.3049 0.5709,1.0066 0.1519,0.4246 1.91082,-0.6209 -0.1267,-0.4327 -0.12976,-1.1499 0.0877,-1.6767 1.47297,-0.3673 0.86458,1.4393 0.4253,1.0762 0.0913,0.4416 1.97861,-0.3489 -0.06523,-0.4461 0.03154,-1.1569 0.32019,-1.6481 1.50975,-0.1587 0.65586,1.5456 0.27137,1.1249 0.02896,0.45 2.00791,-0.0701 -0.0025,-0.4509 L 0,-35.8099 l 0.54645,-1.5875 1.51714,0.053 0.43438,1.6218 0.11216,1.1518 -0.03395,0.4496 1.99813,0.21 0.06028,-0.4469 0.34918,-1.1033 0.76208,-1.496 1.495,0.2636 0.20444,1.6665 -0.04923,1.1562 -0.09619,0.4405 1.94945,0.4861 0.12188,-0.4342 0.49934,-1.0439 0.96286,-1.3755 1.4438,0.4691 -0.0295,1.6787 -0.2097,1.1381 -0.1565,0.4229 1.8628,0.7526 0.1811,-0.4129 0.6398,-0.9643 1.1449,-1.2281 1.3644,0.6655 -0.2628,1.6583 -0.366,1.0978 -0.2139,0.397 1.74,1.0045 0.2368,-0.3837 0.7677,-0.8659 1.3047,-1.0567 1.2586,0.8489 -0.4911,1.6055 -0.5152,1.0362 -0.2671,0.3634 1.5832,1.2369 0.288,-0.347 0.8807,-0.7507 1.4391,-0.8648 1.1281,1.0157 -0.7097,1.5216 -0.6544,0.9545 -0.315,0.3226 1.3956,1.4452 0.3334,-0.3035 0.9767,-0.6208 1.5455,-0.6562 0.9757,1.1629 -0.9145,1.4081 -0.7809,0.854 -0.3569,0.2756 1.1809,1.6255 0.3725,-0.2543 1.0535,-0.4787 1.6217,-0.4347 0.8045,1.2874 -1.1016,1.267 -0.8922,0.737 -0.3918,0.2233 0.9433,1.774 0.4041,-0.1999 1.11,-0.3275 1.6664,-0.2048 0.6175,1.3868 -1.2673,1.1014 -0.986,0.6057 -0.419,0.1666 0.6871,1.888 0.4281,-0.1417 1.1447,-0.1699 1.6787,0.0292 0.4185,1.45922 -1.4082,0.91429 -1.0608,0.4626 -0.4381,0.10666 0.4177,1.96522 0.4436,-0.08076 1.1572,-0.00885 1.6584,0.26248 0.2112,1.50329 -1.5217,0.7094 -1.1148,0.31047 -0.4487,0.04464 z"
         id="path91" />
    </g>
  </g>
</svg>
